<svg xmlns="http://www.w3.org/2000/svg" width="32" height="32" fill="none"><path fill="#D0BC7A" fill-rule="evenodd" d="M13.25 13.4c0-1.475 1.22-2.692 2.75-2.692s2.75 1.217 2.75 2.693-1.22 2.692-2.75 2.692-2.75-1.217-2.75-2.692M16 9.209c-2.335 0-4.25 1.866-4.25 4.193s1.915 4.192 4.25 4.192 4.25-1.865 4.25-4.192S18.334 9.208 16 9.208m-3.625 13.458a2.69 2.69 0 0 1 2.692-2.693h1.865a2.69 2.69 0 0 1 2.692 2.693h1.5a4.19 4.19 0 0 0-4.192-4.193h-1.865a4.19 4.19 0 0 0-4.192 4.193z" clip-rule="evenodd"/></svg>